<svg width="144" height="144" viewBox="0 0 144 144" fill="none" xmlns="http://www.w3.org/2000/svg">
<path d="M72 0C52.9044 0 34.5909 7.58569 21.0883 21.0883C7.58569 34.5909 0 52.9044 0 72C0 91.0956 7.58569 109.409 21.0883 122.912C34.5909 136.414 52.9044 144 72 144C91.0956 144 109.409 136.414 122.912 122.912C136.414 109.409 144 91.0956 144 72C144 52.9044 136.414 34.5909 122.912 21.0883C109.409 7.58569 91.0956 0 72 0V0ZM72 3.98839C80.9314 3.98839 89.7754 5.74756 98.0269 9.16546C106.278 12.5834 113.776 17.5931 120.091 23.9085C126.407 30.224 131.417 37.7215 134.835 45.9731C138.252 54.2246 140.012 63.0686 140.012 72C140.012 80.9314 138.252 89.7754 134.835 98.0269C131.417 106.278 126.407 113.776 120.091 120.091C113.776 126.407 106.278 131.417 98.0269 134.835C89.7754 138.252 80.9314 140.012 72 140.012C53.9622 140.012 36.6632 132.846 23.9085 120.091C11.1539 107.337 3.98839 90.0378 3.98839 72C3.98839 53.9622 11.1539 36.6632 23.9085 23.9085C36.6632 11.1539 53.9622 3.98839 72 3.98839V3.98839Z" fill="white"/>
<path d="M51.9044 39.2896H47.0383V104.531H51.9044V39.2896Z" fill="white"/>
<path d="M80.0195 69.3872H61.2761V74.2533H80.0195V69.3872Z" fill="white"/>
<path d="M107.584 44.3269L103.104 42.4255L83.1088 89.5323L87.5881 91.4337L107.584 44.3269Z" fill="#F04B38"/>
</svg>
